<svg xmlns="http://www.w3.org/2000/svg" width="132" height="75.781" viewBox="0 0 132 75.781">
  <g id="bg_report_nodata" transform="translate(-537 -534.219)">
    <path id="Union_98" data-name="Union 98" d="M6319,451.5a3.487,3.487,0,0,1,.315-1.453l-.024-.039a2.852,2.852,0,0,1,1.5-1.563,3.477,3.477,0,0,1,.857-.341c3.15-1,8.451-.415,11.326-2.726,2.6-2.086-1.972-5.8-1.972-6.879a4.5,4.5,0,0,1,4.5-4.5H6352c2.485,0,1.08,1.412,1.08,3.9s2.485,17.037,0,17.037l-30.017.022A3.5,3.5,0,0,1,6319,451.5Z" transform="translate(-5771 149)" fill="#ebedf0"/>
    <g id="Group_9730" data-name="Group 9730" transform="translate(-409.882 5)">
      <path id="Union_99" data-name="Union 99" d="M6728.881,442.011v-7h.589c.083-1.58.389-3.374.389-4.324,0-1.933.588-1.677,2.521-1.677h10c1.935,0,4.588,1.209,3.5,3.5-.384.81.291,1.7,1.238,2.5h5.261a3.5,3.5,0,1,1,0,7Z" transform="translate(-5697 131.989)" fill="#ebedf0"/>
      <path id="Stroke-1" d="M964,516H939.5a1.5,1.5,0,0,0-1.5,1.5v47a1.5,1.5,0,0,0,1.5,1.5h38a1.5,1.5,0,0,0,1.5-1.5V529.484a4.141,4.141,0,0,0-1.061-2.541l-9.872-9.814c-.587-.583-1.067-.384-1.067.444v8.935A1.514,1.514,0,0,0,968.517,528H975" transform="translate(54 32)" fill="none" stroke="#babdc4" stroke-linecap="round" stroke-linejoin="round" stroke-width="2"/>
      <path id="Path_23174" data-name="Path 23174" d="M973.059,543.576l6,1.916" transform="translate(-93.477 239.522) rotate(-13)" fill="none" stroke="#babdc4" stroke-linecap="round" stroke-width="2"/>
      <path id="Path_23175" data-name="Path 23175" d="M973.059,543.576l6,1.916" transform="translate(193.961 -252.345) rotate(16)" fill="none" stroke="#babdc4" stroke-linecap="round" stroke-width="2"/>
      <path id="Path_23176" data-name="Path 23176" d="M973.059,543.576l6,1.916" transform="translate(647.821 -530.176) rotate(43)" fill="none" stroke="#babdc4" stroke-linecap="round" stroke-width="2"/>
      <circle id="Ellipse_1891" data-name="Ellipse 1891" cx="2.5" cy="2.5" r="2.5" transform="translate(1001.882 565)" fill="#babdc4"/>
      <circle id="Ellipse_1892" data-name="Ellipse 1892" cx="2.5" cy="2.5" r="2.5" transform="translate(1016.882 565)" fill="#babdc4"/>
      <path id="Path_23177" data-name="Path 23177" d="M1003.382,589.306s5.805-5.583,10.632,0" transform="translate(2020.264 1173.213) rotate(180)" fill="none" stroke="#babdc4" stroke-linecap="round" stroke-width="2"/>
    </g>
    <rect id="Rectangle_15519" data-name="Rectangle 15519" width="18" height="2" rx="1" transform="translate(537 608)" fill="#ebedf0"/>
    <rect id="Rectangle_15520" data-name="Rectangle 15520" width="51" height="2" rx="1" transform="translate(561 608)" fill="#ebedf0"/>
    <rect id="Rectangle_15521" data-name="Rectangle 15521" width="8" height="2" rx="1" transform="translate(616 608)" fill="#ebedf0"/>
    <rect id="Rectangle_15523" data-name="Rectangle 15523" width="8" height="2" rx="1" transform="translate(632 608)" fill="#ebedf0"/>
    <rect id="Rectangle_15522" data-name="Rectangle 15522" width="19" height="2" rx="1" transform="translate(650 608)" fill="#ebedf0"/>
  </g>
</svg>
