<svg width="500" height="500" viewBox="0 0 500 500" fill="none" xmlns="http://www.w3.org/2000/svg">
<g clip-path="url(#clip0_206_107)">
<mask id="mask0_206_107" style="mask-type:luminance" maskUnits="userSpaceOnUse" x="62" y="156" width="173" height="212">
<path d="M62.8438 156.391H234.667V367.391H62.8438V156.391Z" fill="white"/>
</mask>
<g mask="url(#mask0_206_107)">
<path d="M63.4323 168.62V318.719C63.4323 319.521 63.5104 320.318 63.6718 321.104C63.8281 321.896 64.0573 322.661 64.3698 323.401C64.677 324.141 65.052 324.849 65.5 325.516C65.9479 326.182 66.4583 326.802 67.026 327.37C67.5989 327.938 68.2187 328.443 68.8906 328.891C69.5573 329.339 70.2656 329.714 71.0104 330.021C71.7552 330.328 72.5208 330.563 73.3125 330.719C74.1041 330.875 74.901 330.953 75.7083 330.953H161.49C217.26 330.953 234.255 367.391 234.255 367.391V192.13C234.255 192.13 218.88 156.391 151.047 156.391H75.7083C74.901 156.391 74.1041 156.469 73.3125 156.625C72.5208 156.781 71.7552 157.01 71.0104 157.318C70.2656 157.625 69.5573 158.005 68.8906 158.448C68.2187 158.896 67.5989 159.406 67.026 159.974C66.4583 160.542 65.9479 161.156 65.5 161.823C65.052 162.495 64.677 163.198 64.3698 163.943C64.0573 164.682 63.8281 165.448 63.6718 166.234C63.5104 167.021 63.4323 167.818 63.4323 168.62Z" fill="#E8E8E8"/>
</g>
<mask id="mask1_206_107" style="mask-type:luminance" maskUnits="userSpaceOnUse" x="234" y="262" width="119" height="106">
<path d="M234 262H353V367.266H234V262Z" fill="white"/>
</mask>
<g mask="url(#mask1_206_107)">
<path d="M353 262.366V327.792H305.365C250.688 327.792 234 367.163 234 367.163V301.251C234 301.251 250.38 262.366 304.125 262.366H353Z" fill="url(#paint0_linear_206_107)"/>
</g>
<mask id="mask2_206_107" style="mask-type:luminance" maskUnits="userSpaceOnUse" x="232" y="212" width="162" height="95">
<path d="M232.104 212.979H393.104V306.979H232.104V212.979Z" fill="white"/>
</mask>
<g mask="url(#mask2_206_107)">
<path d="M392.927 212.979V271.661H302.5C248.703 271.661 232.281 306.979 232.281 306.979V247.859C232.281 247.859 251.057 212.979 303.37 212.979H392.927Z" fill="url(#paint1_linear_206_107)"/>
</g>
<mask id="mask3_206_107" style="mask-type:luminance" maskUnits="userSpaceOnUse" x="232" y="156" width="206" height="95">
<path d="M232.104 156.391H437.104V250.391H232.104V156.391Z" fill="white"/>
</mask>
<g mask="url(#mask3_206_107)">
<path d="M436.354 156.391V215.073H302.828C253.693 215.073 232.854 250.391 232.854 250.391V192.271C232.854 192.271 247.656 156.391 312.901 156.391H436.354Z" fill="url(#paint2_linear_206_107)"/>
</g>
<mask id="mask4_206_107" style="mask-type:luminance" maskUnits="userSpaceOnUse" x="62" y="156" width="173" height="212">
<path d="M62.8438 156.391H234.667V367.391H62.8438V156.391Z" fill="white"/>
</mask>
<g mask="url(#mask4_206_107)">
<path d="M63.4323 168.62V318.719C63.4323 319.521 63.5104 320.318 63.6718 321.104C63.8281 321.896 64.0573 322.661 64.3698 323.401C64.677 324.141 65.052 324.849 65.5 325.516C65.9479 326.182 66.4583 326.802 67.026 327.37C67.5989 327.938 68.2187 328.443 68.8906 328.891C69.5573 329.339 70.2656 329.714 71.0104 330.021C71.7552 330.328 72.5208 330.563 73.3125 330.719C74.1041 330.875 74.901 330.953 75.7083 330.953H161.49C217.26 330.953 234.255 367.391 234.255 367.391V192.13C234.255 192.13 218.88 156.391 151.047 156.391H75.7083C74.901 156.391 74.1041 156.469 73.3125 156.625C72.5208 156.781 71.7552 157.01 71.0104 157.318C70.2656 157.625 69.5573 158.005 68.8906 158.448C68.2187 158.896 67.5989 159.406 67.026 159.974C66.4583 160.542 65.9479 161.156 65.5 161.823C65.052 162.495 64.677 163.198 64.3698 163.943C64.0573 164.682 63.8281 165.448 63.6718 166.234C63.5104 167.021 63.4323 167.818 63.4323 168.62Z" fill="url(#paint3_linear_206_107)"/>
</g>
<g filter="url(#filter0_d_206_107)">
<path d="M79.8824 434V410.578H92.4754V434H108.694V376.572H92.4754V399.308H79.8824V376.572H63.6634V434H79.8824ZM137.397 435.029C140.827 435.029 143.832 434.702 146.413 434.049C149.026 433.396 151.133 432.53 152.734 431.452C154.367 430.341 155.674 428.969 156.654 427.336C157.666 425.67 158.352 423.955 158.712 422.191C159.104 420.427 159.3 418.451 159.3 416.262V376.572H143.816V413.91C143.816 416.001 143.652 417.781 143.326 419.251C143.032 420.688 142.591 421.799 142.003 422.583C141.415 423.334 140.778 423.873 140.092 424.2C139.406 424.494 138.605 424.641 137.691 424.641C136.025 424.641 134.751 423.873 133.869 422.338C133.019 420.77 132.595 417.912 132.595 413.763V376.572H115.151V415.968C115.151 418.189 115.363 420.215 115.788 422.044C116.212 423.873 116.947 425.621 117.993 427.287C119.071 428.92 120.426 430.292 122.06 431.403C123.726 432.514 125.849 433.396 128.43 434.049C131.043 434.702 134.032 435.029 137.397 435.029ZM182.975 435.029C189.019 435.029 193.625 433.347 196.793 429.982C199.995 426.585 201.595 421.652 201.595 415.184C201.595 411.199 200.468 407.818 198.214 405.041C195.993 402.264 192.498 399.863 187.728 397.838C187.271 397.544 186.585 397.168 185.67 396.711C184.788 396.221 184.086 395.813 183.563 395.486C183.073 395.159 182.534 394.767 181.946 394.31C181.358 393.853 180.934 393.346 180.672 392.791C180.411 392.236 180.28 391.615 180.28 390.929C180.28 388.316 182.371 387.009 186.552 387.009C188.284 387.009 190.097 387.385 191.991 388.136C193.919 388.855 195.519 389.965 196.793 391.468L199.243 382.011C199.145 381.848 198.982 381.635 198.753 381.374C198.525 381.08 197.969 380.59 197.087 379.904C196.238 379.185 195.291 378.565 194.245 378.042C193.2 377.519 191.746 377.046 189.884 376.621C188.055 376.164 186.095 375.935 184.004 375.935C170.84 375.935 164.257 381.766 164.257 393.428C164.257 395.584 164.584 397.609 165.237 399.504C165.891 401.366 166.642 402.901 167.491 404.11C168.341 405.286 169.435 406.429 170.774 407.54C172.146 408.618 173.241 409.402 174.057 409.892C174.874 410.349 175.87 410.872 177.046 411.46C180.28 413.028 182.551 414.367 183.857 415.478C185.197 416.589 185.866 417.928 185.866 419.496C185.866 420.966 185.278 421.979 184.102 422.534C182.959 423.089 181.081 423.367 178.467 423.367C175.854 423.367 173.42 422.714 171.166 421.407C168.912 420.068 167.116 418.5 165.776 416.703L164.551 428.61C165.172 429.263 165.94 429.917 166.854 430.57C167.802 431.223 169.01 431.909 170.48 432.628C171.95 433.347 173.763 433.918 175.919 434.343C178.108 434.8 180.46 435.029 182.975 435.029ZM215.901 434H232.463V389.557H243.929V376.572H204.435V389.557H215.901V434ZM284.161 434V421.848C284.193 421.848 284.389 421.864 284.749 421.897C285.108 421.93 285.353 421.946 285.484 421.946C285.614 421.946 285.859 421.962 286.219 421.995C286.611 421.995 286.905 422.011 287.101 422.044C287.329 422.044 287.623 422.06 287.983 422.093C288.375 422.093 288.701 422.109 288.963 422.142C289.257 422.142 289.567 422.142 289.894 422.142C290.253 422.142 290.596 422.142 290.923 422.142C293.471 422.142 295.888 421.57 298.175 420.427C300.461 419.284 302.503 417.65 304.3 415.527C306.096 413.404 307.517 410.692 308.563 407.393C309.641 404.061 310.18 400.37 310.18 396.319C310.18 389.59 308.546 384.543 305.28 381.178C302.013 377.813 297.211 376.131 290.874 376.131C288.62 376.131 285.745 376.213 282.25 376.376C278.754 376.507 276.141 376.572 274.41 376.572H267.942V434H284.161ZM294.108 394.163V401.415C294.108 404.682 293.389 407.181 291.952 408.912C290.547 410.643 288.554 411.509 285.974 411.509H284.161V386.029H286.513C288.963 386.029 290.841 386.78 292.148 388.283C293.454 389.786 294.108 391.746 294.108 394.163ZM323.581 434H341.368L355.578 376.572H342.691L338.281 396.368L334.116 417.144L329.706 396.368L325.443 376.572H307.362L323.581 434ZM372.265 411.803V399.504C372.265 393.591 372.673 389.524 373.49 387.303C374.339 385.049 375.809 383.922 377.9 383.922C379.99 383.922 381.493 385.065 382.408 387.352C383.322 389.639 383.78 393.118 383.78 397.789V409.598C383.78 414.4 383.567 418.01 383.143 420.427C382.751 422.812 382.163 424.396 381.379 425.18C380.595 425.931 379.435 426.307 377.9 426.307C375.809 426.307 374.339 425.245 373.49 423.122C372.673 420.999 372.265 417.226 372.265 411.803ZM376.871 435.029C380.856 435.029 384.302 434.588 387.21 433.706C390.15 432.791 392.551 431.55 394.413 429.982C396.275 428.381 397.761 426.323 398.872 423.808C399.982 421.26 400.75 418.532 401.175 415.625C401.599 412.718 401.812 409.304 401.812 405.384C401.812 402.738 401.73 400.37 401.567 398.279C401.403 396.188 401.109 394.081 400.685 391.958C400.26 389.835 399.688 387.989 398.97 386.421C398.284 384.82 397.353 383.318 396.177 381.913C395.033 380.508 393.678 379.365 392.11 378.483C390.542 377.601 388.663 376.915 386.475 376.425C384.286 375.902 381.82 375.641 379.076 375.641C375.09 375.641 371.628 376.098 368.688 377.013C365.78 377.928 363.396 379.185 361.534 380.786C359.704 382.387 358.234 384.477 357.124 387.058C356.013 389.606 355.245 392.334 354.821 395.241C354.429 398.148 354.233 401.562 354.233 405.482C354.233 408.128 354.314 410.513 354.478 412.636C354.641 414.727 354.935 416.834 355.36 418.957C355.784 421.048 356.34 422.877 357.026 424.445C357.744 426.013 358.675 427.483 359.819 428.855C360.995 430.227 362.367 431.354 363.935 432.236C365.503 433.118 367.365 433.804 369.521 434.294C371.709 434.784 374.159 435.029 376.871 435.029Z" fill="#005249"/>
</g>
</g>
<defs>
<filter id="filter0_d_206_107" x="63.6633" y="375.641" width="347.148" height="68.3881" filterUnits="userSpaceOnUse" color-interpolation-filters="sRGB">
<feFlood flood-opacity="0" result="BackgroundImageFix"/>
<feColorMatrix in="SourceAlpha" type="matrix" values="0 0 0 0 0 0 0 0 0 0 0 0 0 0 0 0 0 0 127 0" result="hardAlpha"/>
<feOffset dx="5" dy="5"/>
<feGaussianBlur stdDeviation="2"/>
<feComposite in2="hardAlpha" operator="out"/>
<feColorMatrix type="matrix" values="0 0 0 0 0 0 0 0 0 0 0 0 0 0 0 0 0 0 0.14 0"/>
<feBlend mode="normal" in2="BackgroundImageFix" result="effect1_dropShadow_206_107"/>
<feBlend mode="normal" in="SourceGraphic" in2="effect1_dropShadow_206_107" result="shape"/>
</filter>
<linearGradient id="paint0_linear_206_107" x1="354.396" y1="293.253" x2="236.836" y2="324.139" gradientUnits="userSpaceOnUse">
<stop stop-color="#00AB55"/>
<stop offset="1" stop-color="#007B55"/>
</linearGradient>
<linearGradient id="paint1_linear_206_107" x1="394" y1="218.5" x2="231.5" y2="276" gradientUnits="userSpaceOnUse">
<stop stop-color="#00AB55"/>
<stop offset="1" stop-color="#007B55"/>
</linearGradient>
<linearGradient id="paint2_linear_206_107" x1="435" y1="157" x2="231.5" y2="211.5" gradientUnits="userSpaceOnUse">
<stop stop-color="#00AB55"/>
<stop offset="1" stop-color="#007B55"/>
</linearGradient>
<linearGradient id="paint3_linear_206_107" x1="62.9999" y1="246" x2="234" y2="296.5" gradientUnits="userSpaceOnUse">
<stop stop-color="#C8FACD"/>
<stop offset="1" stop-color="#007B55"/>
</linearGradient>
<clipPath id="clip0_206_107">
<rect width="500" height="500" fill="white"/>
</clipPath>
</defs>
</svg>
